<?xml version="1.0" encoding="utf-8" ?>
<svg xmlns="http://www.w3.org/2000/svg" xmlns:xlink="http://www.w3.org/1999/xlink" width="878" height="257">
	<path fill="#ADACAD" transform="scale(1.84148 1.84148)" d="M0 0L11.8325 0L464.214 0L476.562 0C476.858 0.447486 476.946 0.831974 476.971 1.35984C477.146 4.99404 477.001 8.70504 477.001 12.3462L477.005 33.5058L477.006 98.0016L477.001 127.879C477.001 130.583 477.424 136.872 476.914 139.22C476.853 139.498 476.719 139.764 476.562 140L464.08 140L11.6569 140L0 140L0 0Z"/>
	<path fill="#FEFEFE" transform="scale(1.84148 1.84148)" d="M0 0L11.8325 0C10.3667 1.6108 8.56297 2.83451 6.91334 4.24227C4.49831 6.30319 2.74301 8.91134 1.06544 11.581C0.954341 19.5009 1.16867 27.44 1.17685 35.3632L1.17894 90.5559L1.13055 113.432C1.09254 118.117 0.619883 123.223 1.35062 127.86C1.73284 130.285 3.52637 132.4 5.19277 134.118C6.69589 135.668 10.9772 138.428 11.6569 140L0 140L0 0Z"/>
	<path fill="#FEFEFE" transform="scale(1.84148 1.84148)" d="M464.214 0L476.562 0C476.858 0.447486 476.946 0.831974 476.971 1.35984C477.146 4.99404 477.001 8.70504 477.001 12.3462L477.005 33.5058L477.006 98.0016L477.001 127.879C477.001 130.583 477.424 136.872 476.914 139.22C476.853 139.498 476.719 139.764 476.562 140L464.08 140C464.673 139.025 465.403 138.552 466.293 137.877C469.336 135.567 474.082 131.822 474.607 127.73C475.395 121.586 474.929 114.939 474.929 108.75L474.926 73.9977L474.928 31.455C474.934 27.2785 475.527 15.3949 474.604 11.9345C473.572 8.06377 470.256 5.13478 467.258 2.72692C466.231 1.90216 465.061 1.11522 464.26 0.061032L464.214 0Z"/>
	<path transform="scale(1.84148 1.84148)" d="M16.145 3.30446C22.315 2.74064 28.8871 3.1786 35.092 3.18113L72.6437 3.19265L189.471 3.19257L369.227 3.19104L429.466 3.19212C438.79 3.19767 448.218 2.833 457.527 3.17101C460.656 3.28463 463.415 3.90513 466.009 5.75852C468.86 7.79495 470.744 10.5773 471.305 14.0425C472.202 19.5718 471.682 25.6847 471.683 31.3055L471.685 62.9641L471.68 103.652C471.679 110.372 472.146 117.408 471.562 124.09C471.324 126.813 470.581 129.422 468.954 131.656C466.708 134.74 463.47 136.142 459.804 136.735C454.766 137.524 448.968 137.011 443.86 137.008L412.431 136.991L306.069 136.991L113.848 136.994L50.1981 136.986C39.7644 136.985 29.1662 137.418 18.7546 136.98C15.4763 136.842 12.531 136.287 9.78225 134.355C7.10848 132.477 5.06995 129.334 4.53841 126.1C3.73501 121.213 4.24682 115.618 4.24496 110.634L4.23913 80.2682L4.2423 37.8028C4.24347 30.9313 3.78386 23.0642 4.36294 16.3337C4.60743 13.4921 5.13534 11.1248 6.84689 8.77148C9.08789 5.69022 12.427 3.89514 16.145 3.30446Z"/>
	<path fill="#FEFEFE" transform="scale(1.84148 1.84148)" d="M246.866 23.1247C247.985 22.9776 249.169 23.0295 250.299 23.0128C250.489 23.3237 250.615 23.6329 250.67 23.9945C250.968 25.9592 250.945 45.4192 250.647 46.4901C250.602 46.6524 250.302 46.9726 250.193 47.1252L246.466 47.0732C246.5 47.0173 246.532 46.961 246.562 46.9028C246.578 46.87 246.594 46.8367 246.611 46.8042C247.286 45.5045 247.315 25.3605 246.866 23.1247Z"/>
	<path fill="#FEFEFE" transform="scale(1.84148 1.84148)" d="M382.11 26.6249C382.441 26.6476 382.627 26.7603 382.899 26.9425C383.211 28.1404 383.105 29.4872 382.662 30.6399C383.719 30.7057 385.592 30.2826 386.485 30.7728C386.735 30.91 386.947 31.2236 387.006 31.5089C387.146 32.1807 386.974 32.5511 386.655 33.1003C385.72 33.6538 383.736 33.316 382.609 33.2943C383.774 35.042 382.648 40.4603 383.182 42.8974C383.691 45.2234 385.492 43.7426 386.866 44.6298C387.133 45.3369 386.944 45.9987 386.802 46.7122C386.332 47.2916 386.017 47.2073 385.307 47.2954C384.346 47.7747 382.256 47.1916 381.217 47.0044C380.949 45.8786 379.774 45.0969 379.514 43.7799C378.91 40.7196 379.767 37.4318 379.309 34.3474C379.048 32.5921 378.14 33.779 377.108 33.009C376.919 32.2545 377.088 31.6497 377.266 30.917C377.92 30.2938 378.353 30.8758 379.142 30.5766C379.577 29.7374 379.286 28.8279 379.438 27.8804C380.13 27.107 381.153 27.0289 382.11 26.6249Z"/>
	<path fill="#FEFEFE" transform="scale(1.84148 1.84148)" d="M355.022 30.3749C356.284 30.1682 357.596 30.1792 358.78 30.7173C360.221 31.372 361.218 32.6519 361.748 34.1177C362.483 36.1494 362.866 45.1994 361.893 47.2418C360.661 47.019 359.352 47.0572 358.102 47.022C358.239 46.806 358.368 46.5605 358.438 46.3138C359.031 44.2111 359.058 36.8599 357.991 34.9344C357.596 34.2213 356.916 33.6402 356.12 33.428C354.735 33.0585 353.638 33.732 352.467 34.3749C351.048 38.0791 352.328 45.1427 351.158 47.1642C349.948 47.0657 348.725 47.1596 347.515 47.2158C347.66 47.0085 347.755 46.7787 347.826 46.5363C348.319 44.8618 348.195 31.8963 347.475 30.6153Q347.903 30.5969 348.331 30.5845C349.242 30.5586 350.157 30.4109 350.867 31.1035C351.272 31.499 351.186 31.6969 351.199 32.2412C352.319 32.117 353.947 30.8736 355.022 30.3749Z"/>
	<path fill="#FEFEFE" transform="scale(1.84148 1.84148)" d="M233.373 30.3746C234.655 30.1798 235.96 30.1684 237.154 30.7439C238.575 31.4288 239.542 32.7658 240.04 34.2329C240.734 36.2793 241.131 45.2124 240.127 47.2458C238.953 47.0515 237.738 47.0413 236.551 46.9848C236.566 46.9596 236.582 46.935 236.596 46.9094C237.398 45.4597 237.118 37.5037 236.571 35.8324C236.273 34.9179 235.684 33.986 234.791 33.5612C233.599 32.9939 232.495 33.4127 231.341 33.8194C228.293 38.4178 231.236 44.0886 229.546 47.0829L225.81 47.0265C225.873 46.935 225.931 46.8414 225.98 46.7416C226.554 45.5716 226.337 32.3157 225.812 30.5946C226.592 30.5236 227.404 30.5463 228.188 30.5319C228.946 30.9248 229.187 31.2609 229.506 32.0713L229.553 32.1929C230.477 32.2602 232.44 30.8421 233.373 30.3746Z"/>
	<path fill="#FEFEFE" transform="scale(1.84148 1.84148)" d="M417.908 30.3749C419.23 30.1416 420.597 30.1463 421.876 30.5938C423.636 31.2094 425.088 32.4632 425.89 34.1523C426.659 35.7731 426.867 38.0443 426.255 39.7347Q420.552 39.731 414.85 39.8104C415.991 40.8236 415.914 42.7096 417.96 44.0895C419.35 45.0273 421.414 44.648 422.962 44.3752C423.324 44.2991 423.696 44.2156 424.065 44.1801C424.765 44.1125 425.068 44.4074 425.577 44.8145C425.611 45.0099 425.702 45.2994 425.641 45.4826C425.421 46.1372 424.792 46.5415 424.191 46.8161C421.997 47.819 418.806 47.6045 416.598 46.7478C414.788 46.0456 413.341 44.7204 412.574 42.9271C411.586 40.6187 411.63 37.6731 412.561 35.3547C413.626 32.6996 415.391 31.4525 417.908 30.3749Z"/>
	<path transform="scale(1.84148 1.84148)" d="M418.341 32.8749C419.001 32.7927 419.768 32.7376 420.412 32.9453C421.501 33.2971 422.531 34.2455 423.058 35.2444C423.099 35.9854 423.075 36.0618 422.683 36.6932C421.887 37.2739 420.637 37.0776 419.687 37.045L414.493 37.0435C416.094 35.8006 416.452 33.9811 418.341 32.8749Z"/>
	<path fill="#FEFEFE" transform="scale(1.84148 1.84148)" d="M392.128 23.1249C393.25 22.9888 394.437 23.0315 395.569 23.0042C396.726 25.1905 395.243 29.7546 395.651 32.3177C396.394 32.3991 398.058 30.9359 398.891 30.6306C400.278 30.1228 401.842 30.0867 403.189 30.7295C404.61 31.4073 405.502 32.6362 406.002 34.0998C406.63 35.9404 407.043 45.4388 406.207 47.1412C404.977 46.9805 403.634 47.1677 402.396 47.2426C402.54 46.9632 402.658 46.6636 402.72 46.3546C403.037 44.7752 403.256 40.3947 402.396 39.1291C402.468 39.0002 402.535 38.8718 402.591 38.7355C402.971 37.8136 402.932 36.2619 402.533 35.3439C402.166 34.4998 401.42 33.8359 400.569 33.5026C399.694 33.1599 398.66 33.1488 397.801 33.5419C394.042 35.2619 396.75 43.8375 395.515 47.1527C395.506 47.177 395.497 47.2011 395.487 47.2254C394.272 47.0334 392.942 47.1097 391.71 47.087C392.547 45.9352 392.229 25.8354 392.128 23.1249Z"/>
	<path fill="#FEFEFE" transform="scale(1.84148 1.84148)" d="M281.338 30.3748C283.137 30.2295 284.934 30.1306 286.63 30.8774C287.941 31.4552 288.826 32.5027 289.328 33.8309C289.947 35.4661 290.5 45.6605 289.8 47.1825C289.029 47.1589 288.236 47.1603 287.469 47.0788C286.335 46.9582 287.026 46.1865 286.491 45.4911C285.347 45.6062 284.575 46.7062 283.55 47.1733C281.895 47.928 279.93 47.3059 278.333 46.6984C278.288 46.5717 278.312 46.6092 278.242 46.5125C277.381 45.3307 276.881 43.9046 275.902 42.8241C276.925 41.5611 277.037 39.7917 278.224 38.5933C280.15 36.6499 284.136 37.4245 285.745 35.8904C286.122 35.5305 286.072 35.3263 286.086 34.8414C285.822 34.259 285.558 33.7713 285.032 33.3785C283.363 32.1322 281.047 33.454 279.248 33.6418C278.657 33.7035 278.414 33.5822 277.974 33.2351C277.838 32.684 277.87 32.2595 278.156 31.7549C278.687 30.8188 280.362 30.6439 281.338 30.3748Z"/>
	<path transform="scale(1.84148 1.84148)" d="M284.563 38.8748C284.865 38.8219 285.239 38.7265 285.543 38.7627C285.715 38.7832 285.911 38.8269 286.017 38.9671C286.461 39.553 286.547 40.5119 286.439 41.2242C286.268 42.351 285.584 43.5051 284.658 44.1751C283.582 44.9527 282.614 44.8246 281.391 44.6253C280.928 44.0909 280.483 43.5469 280.297 42.8485C280.124 42.2019 280.109 41.413 280.476 40.8351C281.274 39.5747 283.211 39.1963 284.563 38.8748Z"/>
	<path fill="#FEFEFE" transform="scale(1.84148 1.84148)" d="M208.027 30.61C208.915 30.5861 209.801 30.5214 210.688 30.4593C210.809 30.6399 210.926 30.825 211.024 31.0197C212.3 33.5539 214.669 41.2615 213.786 43.9274C214.08 43.5997 214.417 43.2469 214.635 42.8638C215.313 41.6742 217.816 31.9021 217.446 30.6906C218.613 30.6875 219.801 30.5481 220.966 30.4635C221.046 30.6742 221.109 30.8847 221.127 31.111C221.219 32.2348 220.384 34.5537 219.645 35.3726C219.672 35.4695 219.688 35.5386 219.693 35.6396C219.763 37.1 216.9 46.1247 215.916 47.2307C214.839 47.1104 213.726 47.1405 212.642 47.1209C212.667 45.2045 209.915 35.4077 208.84 34.2358C208.963 34.6656 209.07 35.1138 209.059 35.5637C209.017 37.2532 206.524 46.1273 205.405 47.2239L201.94 47.0118C202.583 45.3067 198.028 33.771 197.657 31.0411C198.132 30.6108 198.579 30.6811 199.199 30.6247C199.771 30.5572 200.31 30.5608 200.884 30.5914C201.013 30.6708 201.137 30.7653 201.211 30.9009C202.303 32.9234 204.155 41.7722 203.509 43.8166C205.342 41.8603 207.269 33.5407 208.027 30.61Z"/>
	<path fill="#FEFEFE" transform="scale(1.84148 1.84148)" d="M99.6826 21.8086L100.021 21.8006L100.318 22.1145C100.43 27.4252 99.025 31.7753 95.7858 35.9557C92.5372 40.1483 88.0874 41.9201 82.9607 42.5776C82.6352 42.5161 82.4935 42.3458 82.2814 42.1107C81.6333 38.4532 83.5645 33.7105 85.6095 30.6826C88.9313 25.7642 93.9338 22.9297 99.6826 21.8086Z"/>
	<path fill="#FEFEFE" transform="scale(1.84148 1.84148)" d="M262.679 30.3747Q262.776 30.3588 262.873 30.346C265.156 30.0442 267.419 30.4359 269.27 31.8641C271.015 33.2106 272 35.227 272.268 37.3878C272.573 39.8541 272.032 42.5283 270.481 44.5077C269.113 46.2544 267.252 47.1182 265.086 47.3752C263.801 47.7336 261.544 47.3309 260.336 46.7358C258.553 45.8573 257.308 44.0852 256.678 42.241C255.855 39.83 255.979 36.9586 257.127 34.6701C258.371 32.1912 260.166 31.2073 262.679 30.3747Z"/>
	<path transform="scale(1.84148 1.84148)" d="M262.875 33.1247C264.013 32.9535 265.056 32.8918 266.077 33.503C267.279 34.2227 268.035 35.5379 268.36 36.8703C268.824 38.7757 268.614 41.0184 267.577 42.708C266.947 43.733 266.178 44.3502 265.006 44.6253C264.5 44.8283 263.759 44.8354 263.222 44.7258C262.307 44.5393 261.547 44.0346 261.034 43.2559C259.939 41.5957 259.758 39.0424 260.142 37.1395C260.527 35.2337 261.264 34.1855 262.875 33.1247Z"/>
	<path fill="#FEFEFE" transform="scale(1.84148 1.84148)" d="M184.05 30.3745C186.312 30.0379 188.664 30.3344 190.565 31.6704C192.362 32.9323 193.415 34.8948 193.783 37.0312C194.204 39.4774 193.756 42.1343 192.285 44.1672C190.958 46.0006 189.228 46.9312 187.027 47.2732C185.546 47.7067 183.383 47.4818 181.996 46.7915C180.165 45.8795 178.861 44.039 178.221 42.1351C177.414 39.7305 177.553 36.8564 178.699 34.5819C179.87 32.2584 181.65 31.1727 184.05 30.3745Z"/>
	<path transform="scale(1.84148 1.84148)" d="M184.393 33.1242C185.438 32.9852 186.38 32.8586 187.355 33.3643C188.568 33.993 189.4 35.2231 189.8 36.5014C190.39 38.3907 190.266 40.5825 189.334 42.3429C188.69 43.5589 187.88 44.2756 186.57 44.6825C186.066 44.9356 185.384 44.9086 184.848 44.773C183.805 44.5093 183.025 43.9033 182.476 42.9828C181.375 41.137 181.225 38.62 181.756 36.5755C182.187 34.9198 182.929 33.9781 184.393 33.1242Z"/>
	<path fill="#FEFEFE" transform="scale(1.84148 1.84148)" d="M332.827 30.3748L332.926 30.36C335.197 30.0345 337.549 30.445 339.396 31.8583C341.152 33.2015 342.158 35.2383 342.437 37.4055C342.754 39.8715 342.162 42.5507 340.616 44.5263C339.229 46.2989 337.486 47.1193 335.294 47.3751C333.934 47.7101 331.953 47.3762 330.694 46.7741C328.796 45.8665 327.445 44.134 326.774 42.1655C325.949 39.7503 326.101 36.9729 327.237 34.683C328.476 32.1877 330.325 31.2264 332.827 30.3748Z"/>
	<path transform="scale(1.84148 1.84148)" d="M332.848 33.1248C334.013 32.9488 335.034 32.8249 336.105 33.4037C337.301 34.05 338.081 35.2517 338.457 36.5328C339.011 38.4238 338.859 40.6918 337.895 42.4278C337.268 43.5583 336.439 44.2651 335.199 44.6252C334.774 44.8061 334.17 44.8273 333.712 44.7622C332.706 44.6191 331.905 44.2 331.296 43.3704C330.168 41.8348 329.925 39.408 330.212 37.5782C330.528 35.5707 331.221 34.3198 332.848 33.1248Z"/>
	<path fill="#FEFEFE" transform="scale(1.84148 1.84148)" d="M307.159 23.1248C308.268 22.989 309.44 23.0272 310.559 22.9969C310.661 23.1612 310.738 23.3417 310.799 23.525C311.361 25.2091 311.227 45.7889 310.629 47.0274C309.756 47.0713 308.863 47.1587 307.999 46.9958C307.253 46.8551 307.955 45.2911 307.54 44.6922C306.729 44.9451 305.914 46.3085 305.009 46.8089L304.935 46.8487C303.211 47.7042 301.6 47.4571 299.803 47.1181C299.155 46.6472 298.435 46.269 297.855 45.7109C296.097 44.0173 295.226 41.5931 295.202 39.1827C295.177 36.6512 295.962 34.0923 297.774 32.2684C299.012 31.0224 300.769 30.1437 302.551 30.1552C304.274 30.1664 305.823 30.9729 307.015 32.1718C307.627 29.506 307.344 25.8521 307.159 23.1248Z"/>
	<path transform="scale(1.84148 1.84148)" d="M301.624 33.3748C302.818 33.0924 304.151 32.9592 305.247 33.6244C306.288 34.2568 306.925 35.382 307.214 36.5367C307.698 38.4653 307.55 40.977 306.494 42.7027C305.9 43.6724 305.162 44.1149 304.078 44.3797C303.695 44.4773 303.301 44.5552 302.905 44.5221C301.882 44.4368 300.886 44.0554 300.214 43.2551C299.123 41.9546 298.882 39.7987 299.048 38.1732C299.271 35.9859 299.94 34.7547 301.624 33.3748Z"/>
	<path fill="#FEFEFE" transform="scale(1.84148 1.84148)" d="M393.609 76.1249C394.415 76.043 395.225 76.047 396.035 76.0378L396.337 76.387C396.632 78.1811 396.824 81.5721 396.121 83.25C394.29 83.1131 392.561 83.0982 390.833 83.8082C384.197 86.5347 386.219 100.09 386.202 106.182C386.199 107.497 386.384 109.205 385.881 110.417C383.605 110.015 380.846 110.299 378.518 110.348C378.528 110.325 378.54 110.302 378.548 110.278C378.758 109.612 378.64 108.245 378.316 107.626C378.351 107.553 378.384 107.481 378.414 107.406C379.207 105.425 378.923 78.5389 378.143 76.7746L384.625 76.7876Q384.792 77.0426 384.896 77.3291C385.411 78.7045 385.119 81.9966 384.492 83.3232C387.959 81.1975 386.44 77.7621 393.609 76.1249Z"/>
	<path fill="#FEFEFE" transform="scale(1.84148 1.84148)" d="M160.113 24.1247C162.793 24.0583 165.613 24.2281 168.022 25.5088C170.41 26.7785 172.114 28.9388 172.883 31.5233C173.807 34.6288 173.503 38.6354 171.936 41.49Q171.705 41.9178 171.432 42.3207Q171.16 42.7237 170.849 43.0977Q170.538 43.4717 170.192 43.8132Q169.845 44.1547 169.467 44.4603Q169.089 44.7659 168.682 45.0326Q168.275 45.2994 167.844 45.5246Q167.413 45.7499 166.962 45.9315Q166.511 46.1131 166.044 46.2492C164.184 47.8801 156.544 47.1708 153.946 47.0404C153.978 46.9865 154.01 46.9322 154.038 46.8762C154.054 46.8445 154.069 46.8124 154.085 46.781C154.17 46.6164 154.257 46.4558 154.312 46.2777C154.812 44.6682 154.717 25.4658 154.099 24.3405C156.097 24.3358 158.114 24.1981 160.113 24.1247Z"/>
	<path transform="scale(1.84148 1.84148)" d="M158.139 27.1232C159.932 26.8791 162.121 26.8576 163.869 27.314C165.826 27.8249 167.449 28.9792 168.46 30.7451C169.721 32.9486 169.877 35.9655 169.207 38.3802C168.74 40.0615 167.874 41.6519 166.324 42.5292L166.173 42.8428C163.779 44.5753 160.535 44.3915 157.714 44.4699C158.531 43.1455 158.274 29.7269 158.139 27.1232Z"/>
	<path fill="#FEFEFE" transform="scale(1.84148 1.84148)" d="M325.327 68.6247C325.758 68.5453 326.156 68.5589 326.591 68.5798Q326.637 68.7378 326.67 68.8989C326.95 70.2619 327.066 75.6457 326.319 76.7939L334.621 76.7277C334.666 76.794 334.706 76.8572 334.744 76.9277C335.31 77.9828 335.107 81.248 334.747 82.4004C332.021 82.1184 329.119 82.3354 326.371 82.293C327.736 85.3827 325.736 97.1187 327.076 101.654C327.417 102.807 328.054 103.886 329.141 104.471C330.633 105.275 332.529 104.922 334.069 104.457C334.728 106.041 334.641 108.724 334.263 110.382C333.394 110.712 332.459 110.728 331.541 110.798C329.795 111.29 326.783 111.127 325.078 110.576C317.438 108.108 319.313 93.5651 319.342 87.1767C319.349 85.7097 319.57 83.5821 318.893 82.2568L313.8 82.2945C313.973 82.0496 314.12 81.7873 314.203 81.4976C314.58 80.189 314.668 77.9973 314.022 76.7718L319.116 76.7469C319.184 76.6407 319.252 76.5223 319.284 76.3996C319.572 75.2888 319.49 71.6983 318.978 70.6959C321.038 70.1566 323.453 69.6444 325.327 68.6247Z"/>
	<path fill="#FEFEFE" transform="scale(1.84148 1.84148)" d="M297.069 63.125C300.52 63.1567 305.005 63.2785 308.001 65.1816C308.037 65.3118 308.066 65.4404 308.082 65.5747C308.218 66.7564 307.052 70.4058 306.287 71.3241C304.2 69.918 300.629 69.2923 298.133 69.2233C295.814 69.1592 292.812 69.8137 291.087 71.4673C289.998 72.5112 289.55 73.9529 289.537 75.4347C289.49 80.9354 297.389 82.9266 301.375 84.9328C303.354 85.9289 305.292 87.1652 306.843 88.7585C309.049 91.0246 310.263 93.8645 310.211 97.0368C310.15 100.771 308.924 104.137 306.2 106.754C302.114 110.68 296.402 111.053 291.06 110.93C287.283 110.453 284.248 109.781 280.807 108.058C282.101 106.571 281.953 104.279 282.703 102.538C283.908 102.22 288.19 104.148 289.803 104.465Q292.44 104.98 295.122 104.811C297.332 104.669 299.476 104.125 300.977 102.393C302.15 101.04 302.837 99.1879 302.707 97.3947C302.224 90.7325 291.107 89.1822 286.28 84.9516C283.919 82.8829 282.247 80.3759 282.049 77.183C281.85 73.9597 282.931 70.4239 285.087 67.9959C288.191 64.5 292.599 63.4124 297.069 63.125Z"/>
	<path fill="#FEFEFE" transform="scale(1.84148 1.84148)" d="M413.82 76.1249C417.157 75.8412 420.487 76.1917 423.394 77.9937C426.537 79.9419 428.579 83.4095 429.385 86.9608C429.819 88.8703 430.618 93.5981 429.568 95.2597C421.94 95.4092 414.233 94.9772 406.623 95.4578C407.322 96.4546 407.453 97.8277 407.922 98.9469C408.903 101.288 410.229 103.423 412.684 104.394C415.903 105.668 421.842 105.656 425.048 104.277L426.404 104.066C426.737 104.287 426.92 104.401 427.119 104.758C427.708 105.819 428.134 107.866 427.798 109.055C426.702 109.631 425.205 109.953 423.987 110.201C418.444 111.327 411.751 111.608 406.847 108.337C403.418 106.051 401.248 102.495 400.463 98.4822C399.461 93.3535 400.125 87.1884 403.1 82.8098C405.738 78.9286 409.323 76.9823 413.82 76.1249Z"/>
	<path transform="scale(1.84148 1.84148)" d="M413.338 81.3749C415.223 81.0895 416.786 81.1369 418.528 81.9608C420.178 82.7411 421.655 84.1214 422.265 85.8734C422.668 87.0319 422.986 88.8441 422.441 89.9831L415.938 90.037L406.608 90.0038C407.138 89.3255 407.375 88.471 407.68 87.6762C408.905 84.4827 410.282 82.8465 413.338 81.3749Z"/>
	<path fill="#FEFEFE" transform="scale(1.84148 1.84148)" d="M164.949 63.8736C167.966 63.5466 171.159 63.7664 174.197 63.7809C174.868 64.5518 187.983 105.46 189.066 109.185C189.18 109.579 189.195 110.011 189.18 110.419C186.611 110.1 183.854 110.328 181.266 110.396C181.258 108.372 178.004 98.3806 176.807 96.5889C175.856 96.564 174.889 96.6402 173.937 96.681C169.908 96.728 165.649 96.9919 161.653 96.4881C161.669 96.5748 161.681 96.6601 161.69 96.7479C161.819 98.0555 158.445 109.425 157.585 110.484C155.02 110.055 152.141 110.284 149.538 110.338C149.978 109.907 150.203 109.488 150.416 108.921C154.128 99.0233 157.039 88.679 160.299 78.6108C161.413 75.1707 164.503 67.0956 164.949 63.8736Z"/>
	<path transform="scale(1.84148 1.84148)" d="M168.991 70.6137L169.522 70.7239Q169.624 70.8641 169.71 71.0141C170.187 71.8454 171.319 76.9731 171.729 78.3255C172.882 82.1317 174.355 85.8597 175.418 89.6888C175.546 90.1472 175.577 90.4742 175.463 90.9404L169.437 90.9995L162.93 91.0054C163.007 90.9368 163.082 90.8655 163.15 90.7871C164.156 89.6281 169.126 72.968 168.991 70.6137Z"/>
	<path fill="#FEFEFE" transform="scale(1.84148 1.84148)" d="M354.818 76.125C359.349 76.0065 363.544 76.9873 366.974 80.1496C370.417 83.3236 371.9 87.7686 372.07 92.3448C372.256 97.3607 371.061 102.399 367.537 106.161C364.309 109.608 360.265 110.897 355.687 111.056C355.648 111.062 355.609 111.068 355.57 111.073C352.188 111.526 348 110.003 345.416 107.946C341.914 105.159 339.811 100.859 339.318 96.4497C338.741 91.303 339.837 85.7692 343.137 81.6831C346.227 77.8578 350.136 76.638 354.818 76.125Z"/>
	<path transform="scale(1.84148 1.84148)" d="M353.861 81.6249L353.939 81.614C356.205 81.3118 358.448 81.7508 360.278 83.1664C362.77 85.0936 363.877 88.2251 364.253 91.2549C364.735 95.1378 364.022 99.5308 361.549 102.657C360.25 104.299 358.632 105.276 356.557 105.529C356.524 105.541 356.491 105.555 356.458 105.566C355.334 105.968 353.148 105.494 352.072 104.974C349.965 103.956 348.473 101.36 347.734 99.2447C346.352 95.2917 346.47 90.2123 348.318 86.4235C349.555 83.8893 351.23 82.5257 353.861 81.6249Z"/>
	<path fill="#FEFEFE" transform="scale(1.84148 1.84148)" d="M212.774 76.1248C215.781 75.9167 218.741 76.428 221.258 78.1538C224.85 80.6174 227.005 84.7229 227.762 88.9412C228.702 94.1765 227.983 100.473 224.883 104.891C222.741 107.944 219.572 110.238 215.859 110.879C212.806 111.406 208.785 111.077 206.23 109.151C204.971 108.201 203.933 107.051 202.627 106.132C202.945 106.593 203.185 107.088 203.298 107.639C203.661 109.419 203.896 116.047 203.032 117.375C203.171 117.583 203.295 117.802 203.357 118.046C203.706 119.41 203.743 122.835 203.05 124.035C200.563 123.924 198.023 124.049 195.531 124.068Q195.739 123.748 195.857 123.385C196.407 121.627 196.137 78.2836 195.36 76.7741L201.897 76.7643C202.065 77.0453 202.216 77.3418 202.316 77.6541C202.784 79.1037 202.537 80.985 201.872 82.3295C206.593 79.2042 205.628 77.1916 212.774 76.1248Z"/>
	<path transform="scale(1.84148 1.84148)" d="M210.371 82.1246C212.707 81.8935 214.785 82.2157 216.673 83.6963C218.967 85.4964 220.098 88.453 220.436 91.2724C220.876 94.9508 220.265 99.2791 217.919 102.236C216.551 103.96 214.952 104.787 212.789 105.03C212.724 105.056 212.658 105.08 212.591 105.102C211.312 105.522 209.031 105.116 207.857 104.494C205.934 103.474 204.584 101.492 203.951 99.4485C202.857 95.9182 202.923 89.8186 204.655 86.5603C205.94 84.1418 207.803 82.8944 210.371 82.1246Z"/>
	<path fill="#FEFEFE" transform="scale(1.84148 1.84148)" d="M251.343 76.1248Q251.954 76.0645 252.568 76.0601Q253.181 76.0557 253.793 76.1074Q254.404 76.159 255.009 76.2662Q255.613 76.3733 256.205 76.5352Q256.797 76.6971 257.372 76.9122Q257.947 77.1274 258.5 77.3941Q259.052 77.6608 259.579 77.9768Q260.105 78.2928 260.6 78.6555C264.076 81.2361 265.911 85.1534 266.536 89.3459C267.341 94.7549 266.65 100.85 263.3 105.332C260.998 108.413 257.697 110.486 253.872 111.013C247.338 111.911 246.045 109.608 241.59 106.248C241.68 106.376 241.75 106.509 241.822 106.647C241.951 106.891 242.063 107.138 242.114 107.412C242.434 109.108 242.592 115.878 241.775 117.123C241.902 117.313 242.008 117.505 242.078 117.723C242.483 118.969 242.469 122.957 241.862 124.061L234.294 124.06Q234.489 123.784 234.598 123.464C235.165 121.796 234.871 78.2793 234.135 76.7706C235.919 76.7872 239.089 76.3014 240.602 77.2154C241.029 77.4738 241.322 77.9184 241.426 78.4039C241.643 79.4228 240.998 81.4238 240.457 82.2834C241.422 81.7928 242.114 81.0303 242.89 80.2957C245.451 77.8698 247.848 76.6709 251.343 76.1248Z"/>
	<path transform="scale(1.84148 1.84148)" d="M249.06 82.1248C251.307 81.9383 253.146 82.0588 255.047 83.3957C257.39 85.0437 258.54 87.8333 259.021 90.5689C259.674 94.2842 259.197 98.7534 256.972 101.878C255.597 103.809 253.855 104.715 251.556 105.11C251.524 105.122 251.491 105.134 251.458 105.145C250.211 105.563 247.933 105.173 246.76 104.568C244.781 103.547 243.334 101.508 242.685 99.4165C241.602 95.9286 241.701 89.7563 243.418 86.52C244.677 84.148 246.555 82.9058 249.06 82.1248Z"/>
	<path fill="#FEFEFE" transform="scale(1.84148 1.84148)" d="M96.5212 43.5776C97.8083 43.3983 99.1945 43.3921 100.49 43.4676C107.367 43.8686 112.233 47.1606 116.685 52.1666C113.618 54.2441 110.953 56.9548 109.186 60.2264C106.73 64.7733 106.318 70.2968 107.809 75.2226C109.59 81.1082 113.833 84.7451 119.061 87.5531C118.322 89.3377 117.573 91.1281 116.758 92.8793C114.819 97.0484 112.252 101.074 109.359 104.645C104.156 111.068 99.9693 112.159 92.194 109.389C89.7739 108.526 87.4027 107.648 84.8056 107.542C81.7965 107.419 79.1536 108.27 76.375 109.28C74.6206 110.014 72.6461 110.751 70.7686 111.063C68.0688 111.513 65.514 110.492 63.3459 108.92C54.84 102.749 48.404 88.0987 46.7865 77.9725C45.4328 69.4974 45.976 60.0071 51.1719 52.8448C55.9125 46.3102 64.6947 42.023 72.7501 44.2951C76.1581 45.2564 79.3355 47.3996 82.9652 47.4149C86.8324 47.4312 92.1663 44.2676 96.5212 43.5776Z"/>
</svg>
