<?xml version="1.0" encoding="utf-8" ?>
<svg xmlns="http://www.w3.org/2000/svg" xmlns:xlink="http://www.w3.org/1999/xlink" width="865" height="257">
	<path fill="#A7A6A7" transform="scale(1.53446 1.53446)" d="M0 0L19.467 0L520.144 0L544.057 0L563.518 0C564.269 1.19967 564.291 17.2476 563.889 19.2798C563.852 19.4654 563.786 19.6447 563.713 19.8185C564.492 22.242 564.006 48.8496 564.006 53.6564C564.011 84.3275 564.335 115.035 564 145.703C563.99 146.567 564.061 147.599 563.731 148.411C564.269 150.24 564.323 166.484 563.659 167.762C563.616 167.844 563.567 167.922 563.518 168L544.492 168L19.3455 168L0 168L0 148.301L0 19.4324L0 0ZM19.467 0L18.4907 0.61593C23.7267 0.0107625 29.2435 0.319536 34.5198 0.313097L62.5089 0.30063L150.711 0.298883L397.093 0.296788L478.481 0.297522C492.176 0.298067 506.553 0.788458 520.15 0.242254L520.144 0L19.467 0ZM544.057 0L544.611 0.505066C550.706 1.54193 555.952 4.21429 559.61 9.3501C561.419 11.889 563.481 16.2683 563.33 19.5091L563.713 19.8185C563.786 19.6447 563.852 19.4654 563.889 19.2798C564.291 17.2476 564.269 1.19967 563.518 0L544.057 0ZM563.287 148.491C563.185 153.342 560.484 158.3 557.052 161.606Q556.435 162.198 555.773 162.741Q555.112 163.283 554.41 163.772Q553.708 164.262 552.971 164.695Q552.233 165.128 551.464 165.502Q550.695 165.876 549.899 166.189Q549.103 166.502 548.285 166.752Q547.467 167.003 546.632 167.188Q545.797 167.374 544.95 167.494L544.492 168L563.518 168C563.567 167.922 563.616 167.844 563.659 167.762C564.323 166.484 564.269 150.24 563.731 148.411L563.287 148.491ZM0 0L0 19.4324L0.564979 18.7098C0.509633 15.8433 2.5498 11.7581 4.14864 9.5031C7.63061 4.59214 12.6004 1.63549 18.4907 0.61593L19.467 0L0 0ZM0 148.301L0 168L19.3455 168L18.8753 167.514C15.4811 166.905 12.3936 165.848 9.54536 163.856C4.55495 160.366 1.64226 155.405 0.582779 149.466L0 148.301ZM563.33 19.5091C563.894 24.6329 563.492 30.1035 563.477 35.2712L563.461 63.6964L563.462 126.912C563.463 130.782 564.012 145.714 563.287 148.491L563.731 148.411C564.061 147.599 563.99 146.567 564 145.703C564.335 115.035 564.011 84.3275 564.006 53.6564C564.006 48.8496 564.492 22.242 563.713 19.8185L563.33 19.5091ZM0 19.4324L0 148.301L0.582779 149.466C-0.253185 143.734 0.305619 135.186 0.306174 129.228L0.301852 88.6658L0.297705 42.4188C0.295284 35.3803 -0.267954 25.4725 0.564979 18.7098L0 19.4324ZM520.144 0L520.15 0.242254C528.249 0.324755 536.544 -0.0715188 544.611 0.505066L544.057 0L520.144 0Z"/>
	<path fill="#3A373C" fill-opacity="0.95294118" transform="scale(1.53446 1.53446)" d="M520.144 0L544.057 0L544.611 0.505066C536.544 -0.0715188 528.249 0.324755 520.15 0.242254L520.144 0Z"/>
	<path fill="#3A373C" fill-opacity="0.97254902" transform="scale(1.53446 1.53446)" d="M0 19.4324L0.564979 18.7098C-0.267954 25.4725 0.295284 35.3803 0.297705 42.4188L0.301852 88.6658L0.306174 129.228C0.305619 135.186 -0.253185 143.734 0.582779 149.466L0 148.301L0 19.4324Z"/>
	<path transform="scale(1.53446 1.53446)" d="M563.33 19.5091L563.713 19.8185C564.492 22.242 564.006 48.8496 564.006 53.6564C564.011 84.3275 564.335 115.035 564 145.703C563.99 146.567 564.061 147.599 563.731 148.411L563.287 148.491C564.012 145.714 563.463 130.782 563.462 126.912L563.461 63.6964L563.477 35.2712C563.492 30.1035 563.894 24.6329 563.33 19.5091Z"/>
	<path fill="#3A373C" fill-opacity="0.96470588" transform="scale(1.53446 1.53446)" d="M19.467 0L520.144 0L520.15 0.242254C506.553 0.788458 492.176 0.298067 478.481 0.297522L397.093 0.296788L150.711 0.298883L62.5089 0.30063L34.5198 0.313097C29.2435 0.319536 23.7267 0.0107625 18.4907 0.61593L19.467 0Z"/>
	<path fill="#3A373C" transform="scale(1.53446 1.53446)" d="M18.8753 167.514C31.7323 167.929 44.6979 167.595 57.5638 167.594L130.152 167.592L349.645 167.59L482.271 167.592L524.949 167.601C531.086 167.597 539.033 168.096 544.95 167.494L544.492 168L19.3455 168L18.8753 167.514Z"/>
	<path transform="scale(1.53446 1.53446)" d="M24.5299 3.98102C38.2278 3.7391 51.952 3.89907 65.6527 3.89867L138.42 3.89951L357.039 3.90179L480.744 3.90176L520.489 3.89182C528.05 3.89037 535.86 3.51903 543.391 4.1797C547.419 4.53296 551.185 6.04454 554.171 8.80209C558.154 12.479 559.599 17.2689 559.795 22.5249C560.122 31.3242 559.805 40.2471 559.803 49.0612L559.808 101.996L559.824 132.188C559.831 137.406 560.275 143.109 559.585 148.27C559.076 152.077 557.605 155.598 554.961 158.421C550.625 163.05 545.281 163.799 539.284 163.998Q518.679 164.151 498.074 164.069L426.844 164.064L209.215 164.072L83.6519 164.072L43.5292 164.07C36.0894 164.069 28.4179 164.433 20.9872 163.866C16.8206 163.549 13.1318 162.295 10.001 159.454C6.20139 156.007 4.46777 151.939 4.21968 146.87C3.78384 137.964 4.18543 128.854 4.19507 119.931L4.18736 68.5336L4.18092 36.0277C4.18104 30.4493 3.72574 24.4443 4.45606 18.9144C4.94258 15.2306 6.26041 12.5092 8.77262 9.7657C13.1915 4.94005 18.3549 4.23332 24.5299 3.98102Z"/>
	<path fill="#FEFEFE" transform="scale(1.53446 1.53446)" d="M250.008 29.606C251.126 29.4552 252.326 29.5065 253.456 29.4794C253.675 29.8053 253.819 30.1414 253.866 30.5351C254.113 32.6024 254.222 53.2564 253.822 54.5177C253.765 54.6992 253.408 55.0521 253.278 55.22C252.254 55.3879 250.966 55.2254 249.914 55.2137C250.542 53.2784 250.489 32.1815 250.008 29.606Z"/>
	<path fill="#FEFEFE" transform="scale(1.53446 1.53446)" d="M257.248 29.6061C261.857 28.9479 270.059 29.4779 275.022 29.4969C275.126 29.6681 275.218 29.8438 275.287 30.0322C275.715 31.2045 275.503 32.4082 275.018 33.5132L268.077 33.5172C268.243 33.7619 268.369 34.0077 268.432 34.2994C268.828 36.1194 268.836 47.0371 268.021 48.3341C268.162 48.5453 268.277 48.7573 268.358 48.9996C268.808 50.3463 268.713 53.9496 268.087 55.2532L264.005 55.2323C264.123 55.056 264.233 54.8672 264.291 54.6615C264.789 52.9026 264.573 37.3434 264.315 34.801C264.268 34.3437 264.115 33.9313 263.877 33.5386L256.93 33.461C257.669 32.3401 257.418 30.8571 257.248 29.6061Z"/>
	<path fill="#FEFEFE" transform="scale(1.53446 1.53446)" d="M220.253 29.6058C225.125 28.9459 232.871 29.4753 238.029 29.4914C238.117 29.6355 238.197 29.7815 238.262 29.9379C238.741 31.0978 238.523 32.3933 238.075 33.516L231.105 33.5205C231.269 33.7641 231.392 34.0107 231.457 34.2996C231.864 36.0967 231.859 47.3007 231.036 48.611C231.192 48.8436 231.322 49.0859 231.397 49.3577C231.761 50.6893 231.764 54.0389 231.076 55.253L227.014 55.2314C227.14 55.0121 227.24 54.791 227.306 54.5457C227.758 52.8643 227.594 34.6403 226.969 33.5414L219.953 33.4563C220.65 32.4081 220.399 30.7883 220.253 29.6058Z"/>
	<path fill="#FEFEFE" transform="scale(1.53446 1.53446)" d="M202.03 29.6055C206.865 29.0088 212.276 29.4785 217.172 29.5007C217.278 29.671 217.371 29.8459 217.442 30.0338C217.879 31.1857 217.678 32.3885 217.186 33.4747C213.334 33.6787 209.384 33.5188 205.521 33.5289C205.65 33.7202 205.767 33.9229 205.834 34.145C206.246 35.5095 206.191 39.1811 205.542 40.4713L216.084 40.5019C216.171 40.6471 216.236 40.7798 216.29 40.9409C216.672 42.0897 216.575 43.1888 216.041 44.2643C214.323 44.2511 207.665 43.8323 206.303 44.4067C206.092 44.4958 205.763 44.8636 205.574 45.0235C205.651 45.1618 205.724 45.3057 205.776 45.4559C206.228 46.7837 206.183 50.2173 205.553 51.4817L217.188 51.5097C217.297 51.6888 217.373 51.8604 217.437 52.06C217.788 53.1625 217.702 54.2221 217.186 55.2512Q209.479 55.2975 201.772 55.2246C202.49 54.1632 202.444 32.001 202.03 29.6055Z"/>
	<path fill="#FEFEFE" transform="scale(1.53446 1.53446)" d="M182.707 29.3289C185.608 28.9843 188.673 28.975 191.449 29.9819C192.9 30.508 194.933 31.688 195.61 33.1303C195.605 33.1616 195.602 33.1933 195.595 33.2243C195.396 34.18 193.825 35.4701 193.03 36.0281C192.682 35.3751 191.986 34.7956 191.386 34.3715C189.474 33.0208 187.247 32.5755 184.945 32.9726Q184.465 33.0547 183.995 33.184Q183.525 33.3132 183.07 33.4883Q182.616 33.6634 182.181 33.8827Q181.745 34.1019 181.334 34.3631Q180.923 34.6243 180.539 34.925Q180.156 35.2256 179.804 35.5627Q179.452 35.8998 179.135 36.2701Q178.819 36.6403 178.54 37.0401Q178.276 37.4199 178.05 37.824Q177.824 38.228 177.64 38.6523Q177.455 39.0767 177.313 39.5171Q177.171 39.9576 177.074 40.4099Q176.976 40.8622 176.923 41.322Q176.87 41.7817 176.863 42.2445Q176.856 42.7072 176.895 43.1683Q176.933 43.6295 177.017 44.0846Q177.106 44.5689 177.243 45.0421Q177.379 45.5152 177.561 45.9727Q177.743 46.4302 177.969 46.8677Q178.196 47.3051 178.464 47.7182Q178.732 48.1313 179.039 48.5161Q179.346 48.9009 179.69 49.2537Q180.033 49.6065 180.41 49.9239Q180.786 50.2413 181.192 50.5202C183.154 51.8775 185.578 52.5075 187.942 52.0645C190.126 51.6553 192.491 50.2784 193.746 48.4181C194.465 47.3526 194.962 46.1319 194.72 44.8384C191.911 44.9596 189.055 44.8641 186.24 44.8749C185.604 44.0167 186.288 42.3812 185.541 41.2122C189.812 41.1776 194.1 41.0614 198.367 41.274C198.465 41.4286 198.552 41.5839 198.624 41.7517C199.436 43.6211 198.833 46.8439 198.096 48.6841C196.998 51.4239 194.45 53.8372 191.751 54.9798C188.499 56.3568 184.329 56.2928 181.077 54.9463Q180.48 54.6965 179.911 54.3898Q179.341 54.0832 178.804 53.7225Q178.267 53.3617 177.767 52.9505Q177.268 52.5392 176.811 52.0812Q176.354 51.6232 175.944 51.123Q175.534 50.6227 175.174 50.0848Q174.814 49.547 174.509 48.9767Q174.204 48.4063 173.955 47.809C172.632 44.5447 172.554 40.2472 173.934 36.9877C175.598 33.0587 178.902 30.8615 182.707 29.3289Z"/>
	<path fill="#FEFEFE" transform="scale(1.53446 1.53446)" d="M315.024 29.6063C316.435 29.4074 317.969 29.501 319.397 29.482C319.474 29.5374 319.555 29.5973 319.622 29.6645C321.001 31.0469 330.654 46.6968 330.706 47.8956C330.794 47.7063 330.867 47.5165 330.94 47.3214C330.975 47.2297 331.009 47.1397 331.038 47.046C331.434 45.7582 331.456 30.8209 330.767 29.5051L334.695 29.4861C334.743 29.5725 334.748 29.5753 334.783 29.6556C334.798 29.6892 334.812 29.7234 334.826 29.7571C335.478 31.2574 335.414 52.7298 335.042 54.984L334.129 55.2915L330.864 55.2867C330.342 53.2211 320.099 36.9119 318.359 35.6397Q318.611 36.067 318.759 36.5405C319.322 38.3313 319.222 53.924 318.503 55.302L314.834 55.2164C315.458 53.8002 315.421 32.0473 315.024 29.6063Z"/>
	<path fill="#FEFEFE" transform="scale(1.53446 1.53446)" d="M344.548 73.6719C347.098 73.3443 349.78 73.5083 352.35 73.5271C352.496 73.7537 352.618 73.9953 352.669 74.2626C353.205 77.0925 352.763 85.9915 352.765 89.6491C352.771 100.785 353.223 113.132 352.725 124.122C352.699 124.689 352.595 125.067 352.281 125.545C351.563 126.049 345.605 125.72 344.305 125.699C344.331 125.661 344.357 125.623 344.382 125.584C344.701 125.08 344.725 124.546 344.744 123.971C345.123 112.911 344.764 101.718 344.762 90.6447C344.762 86.6518 345.315 77.1158 344.548 73.6719Z"/>
	<path fill="#FEFEFE" transform="scale(1.53446 1.53446)" d="M445.811 73.672C448.413 73.3357 451.144 73.5098 453.765 73.542C453.774 73.5613 453.784 73.5803 453.793 73.5999C453.807 73.6325 453.819 73.6659 453.833 73.6983C454.124 74.3559 454.214 74.8568 454.242 75.5737C454.643 85.9096 454.228 96.3889 454.238 106.741C454.241 110.243 454.776 122.593 454.081 125.202C454.016 125.446 453.6 125.602 453.375 125.73L445.514 125.703C445.527 125.682 445.541 125.662 445.553 125.641C445.865 125.128 445.97 124.664 445.994 124.072C446.441 112.915 446.021 101.552 446.014 90.3759C446.012 86.832 446.475 76.3934 445.811 73.672Z"/>
	<path fill="#FEFEFE" transform="scale(1.53446 1.53446)" d="M294.547 29.3309C298.559 28.8982 302.303 28.8933 305.737 31.3227Q306.278 31.7046 306.779 32.1377Q307.279 32.5707 307.736 33.0506Q308.192 33.5306 308.599 34.0529Q309.005 34.5751 309.359 35.1347Q309.713 35.6943 310.011 36.2858Q310.308 36.8773 310.546 37.4951Q310.784 38.1128 310.961 38.751Q311.138 39.3891 311.251 40.0414C311.867 43.6943 311.062 47.6259 308.881 50.6418C307.023 53.2108 304.204 55.0931 301.062 55.5876C298.592 56.3076 295.158 55.9091 292.803 54.9385Q292.238 54.7004 291.699 54.4086Q291.16 54.1168 290.651 53.774Q290.143 53.4313 289.67 53.0409Q289.197 52.6505 288.765 52.2161Q288.332 51.7817 287.943 51.3074Q287.555 50.8331 287.214 50.3234Q286.873 49.8136 286.584 49.2732Q286.294 48.7328 286.058 48.1669C284.641 44.7486 284.609 40.2562 286.059 36.8425C287.718 32.9388 290.758 30.846 294.547 29.3309Z"/>
	<path transform="scale(1.53446 1.53446)" d="M296.588 32.9113C299.03 32.5931 301.481 33.1001 303.492 34.5575C305.563 36.0578 306.859 38.3583 307.234 40.872C307.625 43.4908 307.076 46.3037 305.471 48.4426C303.895 50.542 301.662 51.6824 299.1 52.0508C297.391 52.3862 295.379 51.9007 293.857 51.0999C291.649 49.9374 290.07 47.6876 289.362 45.3318Q289.22 44.8567 289.126 44.3698Q289.032 43.8829 288.987 43.3891Q288.942 42.8953 288.946 42.3995Q288.951 41.9036 289.004 41.4107Q289.058 40.9177 289.16 40.4325Q289.262 39.9474 289.413 39.4748Q289.563 39.0022 289.759 38.5468Q289.955 38.0915 290.196 37.658C291.648 35.0065 293.758 33.7281 296.588 32.9113Z"/>
	<path fill="#FEFEFE" transform="scale(1.53446 1.53446)" d="M515.743 92.2386L524.648 92.2735C524.693 92.444 524.73 92.6288 524.714 92.8064C524.564 94.4548 515.222 115.676 514.132 116.637C514.161 116.764 514.178 116.885 514.181 117.016C514.203 118.144 504.225 140.533 503.317 141.523L494.741 141.49C495.021 141.283 495.287 141.038 495.489 140.753C496.72 139.015 502.925 125.255 502.685 123.705C502.949 122.156 491.047 96.3824 489.272 92.3999C492.04 92.1403 494.898 92.2673 497.679 92.2646C497.798 92.3771 497.915 92.4962 498.014 92.6267C499.145 94.1252 505.721 110.678 506.582 113.364C506.739 113.856 506.766 114.342 506.7 114.853C506.946 114.678 507.165 114.482 507.342 114.235C508.383 112.786 515.925 93.2988 515.743 92.2386Z"/>
	<path fill="#FEFEFE" transform="scale(1.53446 1.53446)" d="M370.77 91.2983C372.144 91.238 373.57 91.1336 374.939 91.2801C379.352 91.7526 383.182 94.2115 385.915 97.6399C387.168 99.2111 389.193 102.557 388.961 104.667C387.745 105.872 367.364 113.882 365.103 114.481C367.395 115.873 368.249 118.458 371.134 119.238C373.796 119.958 377.023 119.494 379.402 118.114C380.629 117.403 382.136 116.063 382.518 114.661C383.516 115.144 384.809 115.739 385.482 116.635C386.587 117.058 388.032 117.906 388.722 118.88C388.647 119.221 388.492 119.542 388.307 119.837C386.287 123.046 382.017 125.522 378.392 126.346C373.679 127.418 368.462 126.73 364.368 124.109Q363.656 123.645 362.992 123.114Q362.328 122.583 361.718 121.99Q361.108 121.398 360.559 120.749Q360.009 120.101 359.525 119.402Q359.04 118.703 358.625 117.961Q358.211 117.219 357.869 116.441Q357.528 115.662 357.264 114.854Q356.999 114.046 356.814 113.216C355.751 108.357 356.502 102.955 359.207 98.7483C361.926 94.5197 365.969 92.3288 370.77 91.2983Z"/>
	<path transform="scale(1.53446 1.53446)" d="M371.653 98.4589C373.557 98.1931 375.478 98.2928 377.222 99.1947C378.154 99.6765 379.269 100.589 379.589 101.611C377.897 103.297 372.113 105.119 369.723 105.895C368.566 107.046 365.145 107.813 363.532 108.298C364.43 107.274 364.57 105.829 365.102 104.603C366.585 101.189 368.19 99.8212 371.653 98.4589Z"/>
	<defs>
		<linearGradient id="gradient_0" gradientUnits="userSpaceOnUse" x1="97.504852" y1="84.596832" x2="137.70444" y2="82.524498">
			<stop offset="0" stop-color="#FFBD00"/>
			<stop offset="1" stop-color="#FFDE01"/>
		</linearGradient>
	</defs>
	<path fill="url(#gradient_0)" transform="scale(1.53446 1.53446)" d="M113.94 66.2961L127.394 73.942C130.279 75.5828 133.527 77.1123 136.045 79.2798C137.108 80.1947 138.083 81.3501 138.459 82.728C138.805 83.9962 138.558 85.2755 137.909 86.403C135.556 90.4913 118.846 98.8012 113.93 101.597C112.178 100.438 110.416 98.1068 108.897 96.5739Q102.641 90.1958 96.2365 83.9666C102.339 78.3284 108.18 72.2832 113.94 66.2961Z"/>
	<path fill="#FEFEFE" transform="scale(1.53446 1.53446)" d="M469.919 91.2983C474.199 90.951 478.511 91.1369 482.335 93.3002Q482.887 93.6104 483.404 93.9742Q483.922 94.338 484.401 94.7518Q484.88 95.1656 485.315 95.6252Q485.75 96.0848 486.137 96.5856Q486.523 97.0864 486.858 97.6234Q487.193 98.1604 487.472 98.7283Q487.752 99.2961 487.973 99.889Q488.194 100.482 488.355 101.094C489.099 103.851 489.659 123.878 488.597 125.736L480.832 125.665L480.869 125.6C481.573 124.334 481.266 123.16 480.89 121.859C480.773 122.591 480.228 123.157 479.727 123.667C477.5 125.934 474.44 126.684 471.334 126.705C464.758 126.75 463.391 124.658 459.187 120.476C459.078 119.332 458.593 118.263 458.415 117.121C457.951 114.134 458.302 111.486 460.135 109.007C462.457 105.866 466.43 104.117 470.207 103.561C473.328 103.102 478.372 103.183 481.054 105.174C481.115 104.978 481.168 104.784 481.194 104.58C481.325 103.551 480.638 102.149 480.009 101.359C478.616 99.6073 476.253 98.6762 474.082 98.4311C469.442 97.9074 468.919 99.7488 465.828 102.231C463.719 100.937 460.989 99.981 458.648 99.1489C459.43 98.4821 459.959 97.3795 460.629 96.5791C463.189 93.5173 466.149 92.2235 469.919 91.2983Z"/>
	<path transform="scale(1.53446 1.53446)" d="M472.791 110.026Q473.21 109.992 473.63 109.986C475.788 109.949 479.359 110.055 480.99 111.627C481.108 113.095 480.559 114.332 479.732 115.52C478.355 117.499 476.254 118.976 473.874 119.39C473.823 119.408 473.757 119.433 473.702 119.444C472.142 119.784 469.646 119.596 468.274 118.711C467.307 118.088 466.645 117.165 466.421 116.032C466.201 114.913 466.498 113.746 467.148 112.819C468.513 110.875 470.582 110.417 472.791 110.026Z"/>
	<path fill="#FEFEFE" transform="scale(1.53446 1.53446)" d="M243.116 91.2982C248.26 91.0304 252.813 91.6901 256.991 94.9533Q257.671 95.4895 258.295 96.0901Q258.919 96.6908 259.481 97.35Q260.043 98.0091 260.538 98.7205Q261.032 99.4318 261.454 100.188Q261.876 100.945 262.221 101.739Q262.566 102.534 262.831 103.358Q263.097 104.183 263.28 105.03Q263.462 105.876 263.561 106.737C264.137 111.588 262.866 116.481 259.803 120.312C256.799 124.071 252.609 126.145 247.876 126.665C243.616 127.046 239.371 126.315 235.745 123.968C231.747 121.381 229.185 117.356 228.212 112.727C227.239 108.101 228.119 103.03 230.738 99.0718C233.691 94.6065 237.999 92.3508 243.116 91.2982Z"/>
	<path transform="scale(1.53446 1.53446)" d="M242.972 98.7337Q243.144 98.6967 243.318 98.6672C246.134 98.1842 248.861 98.5028 251.229 100.186Q251.651 100.492 252.042 100.838Q252.432 101.185 252.786 101.568Q253.141 101.951 253.456 102.366Q253.771 102.782 254.044 103.227Q254.316 103.672 254.544 104.141Q254.772 104.611 254.952 105.1Q255.133 105.59 255.264 106.095Q255.396 106.6 255.477 107.115C255.962 110.024 255.331 113.161 253.594 115.564Q253.332 115.932 253.036 116.273Q252.739 116.614 252.411 116.924Q252.082 117.234 251.725 117.51Q251.368 117.786 250.985 118.027Q250.602 118.267 250.198 118.468Q249.794 118.67 249.372 118.831Q248.95 118.992 248.514 119.111Q248.078 119.229 247.633 119.305C247.604 119.326 247.578 119.35 247.548 119.367C246.492 119.943 244.057 119.584 242.937 119.223C240.448 118.421 238.305 116.44 237.128 114.128C235.789 111.497 235.566 108.234 236.487 105.433C237.587 102.087 239.956 100.25 242.972 98.7337Z"/>
	<path fill="#FEFEFE" transform="scale(1.53446 1.53446)" d="M281.958 91.2983C287.16 91.058 291.777 91.728 295.974 95.0728Q296.646 95.613 297.261 96.2167Q297.876 96.8204 298.428 97.4817Q298.981 98.1431 299.466 98.8557Q299.95 99.5682 300.363 100.325Q300.775 101.082 301.111 101.876Q301.446 102.669 301.702 103.492Q301.958 104.315 302.132 105.16Q302.305 106.004 302.395 106.861C302.926 111.654 301.67 116.61 298.608 120.376C295.637 124.031 291.343 126.192 286.695 126.663C282.411 127.119 277.986 126.246 274.387 123.841Q273.676 123.373 273.016 122.836Q272.355 122.299 271.752 121.699Q271.149 121.098 270.608 120.441Q270.068 119.783 269.596 119.075Q269.124 118.367 268.725 117.615Q268.326 116.863 268.005 116.075Q267.683 115.287 267.442 114.47Q267.201 113.654 267.042 112.818C266.106 107.982 266.915 102.937 269.699 98.8347C272.595 94.5689 277.003 92.2598 281.958 91.2983Z"/>
	<path transform="scale(1.53446 1.53446)" d="M281.778 98.734C284.584 98.1664 287.455 98.4404 289.87 100.06C292.206 101.627 293.746 104.181 294.273 106.924Q294.376 107.466 294.426 108.016Q294.476 108.566 294.472 109.118Q294.468 109.67 294.41 110.219Q294.352 110.769 294.241 111.309Q294.13 111.85 293.967 112.378Q293.803 112.905 293.589 113.414Q293.375 113.923 293.112 114.409Q292.85 114.894 292.541 115.352C291.041 117.538 288.826 118.907 286.239 119.39C284.69 119.724 283.365 119.689 281.846 119.206C279.26 118.385 277.059 116.414 275.836 114.007Q275.593 113.523 275.398 113.018Q275.204 112.512 275.059 111.99Q274.915 111.468 274.823 110.935Q274.731 110.401 274.691 109.861Q274.652 109.321 274.665 108.779Q274.679 108.238 274.745 107.7Q274.812 107.163 274.931 106.635Q275.05 106.106 275.22 105.592C276.351 102.202 278.701 100.267 281.778 98.734Z"/>
	<path fill="#F52F48" transform="scale(1.53446 1.53446)" d="M96.0378 83.9368L96.2365 83.9666Q102.641 90.1958 108.897 96.5739C110.416 98.1068 112.178 100.438 113.93 101.597Q92.2027 113.75 70.6009 126.125L59.191 132.642C56.7919 134.024 54.3927 135.605 51.8372 136.672C50.1555 137.375 48.2295 137.878 46.4245 137.352C45.4277 137.062 44.5762 136.617 43.7713 135.965C45.9016 134.258 47.8163 132.11 49.746 130.176L59.7834 120.113C71.8386 108.037 83.7835 95.8089 96.0378 83.9368Z"/>
	<path fill="#00EF76" transform="scale(1.53446 1.53446)" d="M43.7335 32.1096C45.0794 30.8896 46.5929 30.1393 48.4497 30.2395C50.1488 30.3313 51.8569 31.1654 53.3606 31.9114C60.0222 35.2158 66.4414 39.3556 72.9133 43.0346L113.94 66.2961C108.18 72.2832 102.339 78.3284 96.2365 83.9666L96.0378 83.9368C93.1675 82.0835 88.152 76.2716 85.5235 73.642L57.4732 45.6296C53.52 41.659 47.9787 35.212 43.7335 32.1096Z"/>
	<path fill="#FEFEFE" transform="scale(1.53446 1.53446)" d="M196.061 71.7442Q197.831 71.5367 199.613 71.547Q201.395 71.5572 203.163 71.7851Q204.93 72.0129 206.657 72.455Q208.383 72.8971 210.043 73.5467C212.48 74.5128 217.177 76.7735 218.239 79.2366C218.228 79.2906 218.22 79.345 218.208 79.3985C217.934 80.5546 213.966 84.0379 212.864 84.702C212.778 84.3869 212.62 84.2483 212.381 84.0431C208.365 80.5898 203.336 79.0194 198.04 79.448Q197.559 79.4826 197.081 79.5413Q196.603 79.6 196.128 79.6826Q195.653 79.7653 195.183 79.8717Q194.713 79.9782 194.249 80.1081Q193.785 80.238 193.328 80.3911Q192.871 80.5441 192.423 80.72Q191.974 80.8958 191.535 81.094Q191.095 81.2922 190.667 81.5122Q190.238 81.7322 189.821 81.9734Q189.404 82.2147 188.999 82.4766Q188.595 82.7386 188.204 83.0205Q187.813 83.3024 187.437 83.6036Q187.061 83.9048 186.7 84.2246Q186.34 84.5443 185.996 84.8818Q185.652 85.2193 185.325 85.5736Q184.998 85.9279 184.69 86.2982C181.125 90.5534 179.654 95.8783 180.169 101.371Q180.212 101.849 180.278 102.324Q180.345 102.798 180.435 103.27Q180.525 103.741 180.638 104.207Q180.751 104.673 180.886 105.132Q181.022 105.592 181.181 106.045Q181.339 106.498 181.52 106.942Q181.701 107.386 181.903 107.821Q182.106 108.255 182.329 108.68Q182.553 109.104 182.797 109.516Q183.041 109.929 183.306 110.329Q183.57 110.729 183.854 111.116Q184.138 111.502 184.441 111.874Q184.743 112.246 185.064 112.602Q185.385 112.959 185.723 113.299Q186.061 113.64 186.415 113.963Q186.769 114.286 187.139 114.591C191.396 118.089 196.71 119.407 202.15 118.859C206.79 118.392 211.249 116.343 214.208 112.661C215.874 110.589 217.448 107.219 217.155 104.512C211.154 104.6 205.136 104.478 199.133 104.451C199.248 104.284 199.345 104.106 199.394 103.907C199.698 102.672 199.665 100.654 198.998 99.5644Q199.074 99.4233 199.144 99.2788C199.587 98.3656 199.639 97.461 199.305 96.506C207.787 96.3775 216.335 96.3388 224.815 96.5502C225.011 96.8109 225.095 97.0611 225.161 97.3772C226.318 102.939 224.831 110.979 221.647 115.733Q221.318 116.233 220.965 116.717Q220.612 117.201 220.236 117.666Q219.86 118.132 219.461 118.579Q219.062 119.025 218.642 119.452Q218.221 119.878 217.781 120.283Q217.34 120.689 216.88 121.072Q216.42 121.455 215.941 121.815Q215.463 122.175 214.968 122.511Q214.472 122.847 213.961 123.158Q213.449 123.47 212.923 123.756Q212.397 124.041 211.857 124.301Q211.318 124.56 210.766 124.793Q210.215 125.026 209.652 125.231Q209.09 125.437 208.518 125.614Q207.946 125.791 207.366 125.94Q206.786 126.09 206.2 126.21C198.478 127.732 190.358 126.439 183.799 122.024Q183.235 121.647 182.69 121.243Q182.145 120.838 181.621 120.408Q181.096 119.977 180.593 119.521Q180.091 119.065 179.611 118.585Q179.131 118.105 178.676 117.602Q178.22 117.099 177.79 116.575Q177.36 116.05 176.956 115.505Q176.552 114.959 176.175 114.395Q175.798 113.831 175.45 113.248Q175.101 112.666 174.781 112.068Q174.462 111.469 174.172 110.855Q173.882 110.242 173.623 109.615Q173.364 108.988 173.135 108.348Q172.907 107.709 172.71 107.06Q172.514 106.41 172.349 105.752Q172.185 105.094 172.053 104.428Q171.923 103.77 171.827 103.107Q171.73 102.443 171.666 101.776Q171.602 101.108 171.572 100.438Q171.541 99.7685 171.544 99.098Q171.546 98.4275 171.582 97.7579Q171.618 97.0884 171.687 96.4214Q171.756 95.7544 171.858 95.0917Q171.96 94.429 172.095 93.7722Q172.23 93.1153 172.397 92.466Q172.564 91.8166 172.763 91.1764Q172.962 90.5361 173.193 89.9065Q173.424 89.2769 173.685 88.6595Q173.947 88.0421 174.239 87.4385Q174.531 86.8348 174.852 86.2464Q175.173 85.6579 175.524 85.0862Q175.874 84.5144 176.252 83.9607C181.054 76.8826 187.827 73.328 196.061 71.7442Z"/>
	<path fill="#FEFEFE" transform="scale(1.53446 1.53446)" d="M405.786 73.6719Q407.02 73.5221 408.263 73.5124C414.167 73.4493 424.464 72.7289 429.882 74.1779Q430.946 74.4686 431.964 74.8917Q432.982 75.3149 433.939 75.8636Q434.895 76.4124 435.774 77.078Q436.653 77.7436 437.441 78.5152C440.511 81.5484 442.026 85.4918 442.038 89.7837C442.049 94.0065 440.533 97.8864 437.533 100.878C432.884 105.513 427.473 105.984 421.279 106L413.866 106.022C413.974 106.174 414.061 106.329 414.121 106.506C414.612 107.948 414.369 124.627 413.817 125.73L405.605 125.703C405.651 125.638 405.669 125.616 405.711 125.539C405.939 125.119 405.976 124.537 405.986 124.066C406.241 112.766 405.981 101.409 405.986 90.1028C405.988 86.4695 406.496 76.5229 405.786 73.6719Z"/>
	<path transform="scale(1.53446 1.53446)" d="M414.104 81.108C417.993 80.6885 423.62 80.4344 427.392 81.4017C429.637 81.9776 431.64 83.2749 432.825 85.3006C433.928 87.1858 434.299 89.8 433.726 91.9101C433.299 93.4815 432.412 95.1539 430.961 95.9804C430.916 96.1958 430.842 96.3315 430.684 96.4881C427.523 99.6085 418.225 98.5461 413.809 98.5036C414.641 97.156 414.536 83.1731 414.104 81.108Z"/>
	<path fill="#FEFEFE" transform="scale(1.53446 1.53446)" d="M320.104 91.2983C322.175 91.2081 324.098 91.1242 326.122 91.6895C327.243 92.0026 331.454 94.3924 331.886 94.3787Q331.989 93.6106 332.118 92.8463C333.499 91.6835 337.497 92.2297 339.32 92.2801C340.154 93.706 339.859 120.475 339.752 124.377C339.611 129.572 338.49 134.829 334.551 138.527C331.194 141.679 326.688 142.909 322.161 142.756C316.637 142.569 312.245 140.182 308.981 135.793C308.1 134.609 307.489 133.272 306.481 132.186C307.468 131.843 308.483 131.552 309.329 130.92C310.764 130.552 312.175 129.888 313.486 129.21C315.496 130.994 316.157 133.351 318.816 134.625C321.082 135.711 323.656 135.924 326.037 135.076Q326.452 134.929 326.85 134.742Q327.248 134.555 327.626 134.328Q328.003 134.102 328.356 133.839Q328.709 133.576 329.033 133.279Q329.358 132.982 329.652 132.654Q329.945 132.326 330.204 131.97Q330.463 131.615 330.686 131.235Q330.908 130.855 331.091 130.455C332.153 128.184 332.426 125.235 331.556 122.868C331.534 123 331.502 123.13 331.441 123.25C330.663 124.761 328.283 125.751 326.751 126.188Q325.994 126.404 325.22 126.545Q324.446 126.686 323.662 126.75Q322.877 126.814 322.091 126.801Q321.304 126.788 320.522 126.698Q319.74 126.608 318.971 126.441Q318.202 126.275 317.453 126.034Q316.704 125.793 315.982 125.479Q315.261 125.166 314.573 124.783Q313.8 124.339 313.074 123.822Q312.348 123.305 311.676 122.718Q311.005 122.132 310.394 121.483Q309.783 120.834 309.239 120.127Q308.695 119.421 308.223 118.665Q307.751 117.909 307.355 117.11Q306.96 116.311 306.644 115.478Q306.329 114.644 306.097 113.783Q305.863 112.917 305.715 112.032Q305.568 111.148 305.508 110.253Q305.448 109.358 305.476 108.461Q305.504 107.565 305.62 106.675Q305.737 105.786 305.94 104.912Q306.143 104.039 306.431 103.189Q306.719 102.34 307.089 101.523Q307.459 100.706 307.908 99.9294C310.671 95.1031 314.922 92.7116 320.104 91.2983Z"/>
	<path transform="scale(1.53446 1.53446)" d="M320.63 98.7341L320.767 98.7076C323.406 98.215 325.946 98.4122 328.195 99.9793C330.463 101.559 331.893 104.114 332.373 106.807C332.913 109.84 332.418 113.092 330.63 115.643C329.131 117.779 327.018 119.061 324.467 119.498C322.924 119.658 321.524 119.517 320.055 118.998C317.613 118.136 315.71 116.357 314.608 114.017Q314.367 113.504 314.179 112.97Q313.99 112.436 313.855 111.886Q313.72 111.336 313.641 110.776Q313.561 110.215 313.537 109.649Q313.513 109.083 313.546 108.518Q313.578 107.953 313.666 107.393Q313.754 106.834 313.897 106.286Q314.04 105.738 314.237 105.207C315.436 101.96 317.57 100.144 320.63 98.7341Z"/>
	<defs>
		<linearGradient id="gradient_1" gradientUnits="userSpaceOnUse" x1="69.747383" y1="58.153801" x2="18.834291" y2="110.30514">
			<stop offset="0" stop-color="#00C7FF"/>
			<stop offset="1" stop-color="#0EF"/>
		</linearGradient>
	</defs>
	<path fill="url(#gradient_1)" transform="scale(1.53446 1.53446)" d="M43.7335 32.1096C47.9787 35.212 53.52 41.659 57.4732 45.6296L85.5235 73.642C88.152 76.2716 93.1675 82.0835 96.0378 83.9368C83.7835 95.8089 71.8386 108.037 59.7834 120.113L49.746 130.176C47.8163 132.11 45.9016 134.258 43.7713 135.965C43.2193 135.142 42.7797 134.149 42.5563 133.184C41.4157 128.254 42.0093 122.155 42.0118 117.064L42.0137 91.2302L42.0102 56.967C42.0053 50.2994 41.7134 43.4971 42.2063 36.8536C42.3437 35.0006 42.7463 33.6809 43.7335 32.1096Z"/>
</svg>
