<?xml version="1.0" encoding="utf-8" ?>
<svg xmlns="http://www.w3.org/2000/svg" xmlns:xlink="http://www.w3.org/1999/xlink" width="630" height="206">
	<defs>
		<linearGradient id="gradient_0" gradientUnits="userSpaceOnUse" x1="387.11874" y1="391.13712" x2="303.54153" y2="385.72827">
			<stop offset="0" stop-color="#F78855"/>
			<stop offset="1" stop-color="#FFCA5C"/>
		</linearGradient>
	</defs>
	<path fill="url(#gradient_0)" transform="scale(0.268908 0.268908)" d="M424.804 564.904C418.173 566.954 410.549 567.802 403.628 568.055C378.687 568.967 353.809 560.643 335.447 543.539C310.186 520.007 301.148 485.011 299.916 451.564C297.245 379.037 319.08 296.165 369.491 242.022C391.146 218.763 419.88 200.873 452.36 199.739C432.741 206.224 417.941 206.542 399.716 219.092C395.721 238.396 397.757 259.311 395.763 278.901C395.487 281.619 394.305 284.227 394.06 286.865C393.733 290.386 394.82 294.099 394.611 297.675C394.453 300.388 392.364 304.103 393.719 306.305L393.187 306.315C393.36 306.155 393.537 305.998 393.707 305.834C395.991 303.627 398.064 299.901 400.018 297.306C408.332 286.264 420.311 269.168 434.41 264.877L435.472 265.663C395.283 291.54 374.9 340.654 365.118 385.863C358.354 417.123 353.406 462.137 371.524 490.169C376.907 498.499 384.561 504.636 394.399 506.645C405.348 508.882 415.852 506.158 425.752 501.519L425.925 503.044C418.698 507.817 404.601 510.498 396.118 508.755C390.681 507.637 385.406 505.274 380.491 502.753C380.63 523.109 377.382 543.453 376.961 563.818C391.936 568.818 409.496 566.618 424.653 563.639L424.804 564.904Z"/>
	<path fill="#E94653" transform="scale(0.268908 0.268908)" d="M1635.62 243.499C1652.16 242.485 1669.01 243.142 1685.6 243.168C1686.24 244.206 1686.77 245.314 1687.01 246.526C1688.41 253.875 1688.37 309.888 1685.65 314.232L1769.2 314.234C1769.72 315.078 1770.17 315.946 1770.43 316.909C1772.04 322.669 1771.97 356.252 1769.17 361.124L1686.08 361.125C1690.31 367.703 1684.69 472.302 1688.09 491.251C1689.2 497.468 1691.57 503.544 1695.84 508.284C1702.15 515.277 1711.1 517.767 1720.22 518.11C1732.35 518.568 1756.04 515.433 1765.22 506.929C1765.68 507.48 1766.1 508.049 1766.46 508.674C1768.46 512.118 1769.42 517.665 1768.36 521.498C1768.62 521.924 1768.86 522.343 1769.09 522.785C1771.74 527.831 1776.2 548.323 1774.51 553.741C1773.05 555.25 1770.18 556.229 1768.22 557.006C1740.84 567.838 1706.84 571.621 1679.29 559.661C1634.67 540.282 1636.86 493.03 1636.95 452.049Q1636.74 422.69 1636.99 393.332C1637.11 384.683 1639.1 369.608 1635.78 361.765C1635.69 361.551 1635.6 361.34 1635.5 361.128L1591.47 361.13C1591.87 360.451 1592.17 359.726 1592.44 358.993C1594.61 353.161 1594.02 319.665 1591.56 314.227L1635.25 314.228C1635.67 313.573 1636.03 312.909 1636.3 312.176C1638.21 306.885 1637.87 248.457 1635.62 243.499Z"/>
	<path fill="#E94653" transform="scale(0.268908 0.268908)" d="M1466.41 306.499C1487.74 304.613 1509.77 308.783 1528.49 319.284C1555.76 334.58 1572.99 361.421 1581.35 391.01C1584.96 403.753 1593 446.017 1586.98 456.775L1405.85 456.972C1410.74 463.027 1410.47 480.367 1423.19 495.546C1447.86 525.005 1491.4 527.923 1524.76 512.655C1531.47 509.584 1549.35 494.437 1555 494.916L1556.3 497.125C1557.4 497.693 1558.49 498.335 1559.39 499.199C1565.38 504.963 1579.95 520.434 1580.08 528.281C1579.96 529.011 1579.84 529.421 1579.37 530.018C1564.37 549.396 1527.11 561.847 1503.38 565.339C1467.99 570.546 1429.79 564.103 1400.72 542.409C1372.83 521.593 1358.61 489.832 1353.78 456.133C1348.73 420.945 1355.65 384.964 1377.31 356.255C1399.34 327.05 1430.8 311.433 1466.41 306.499ZM1470.16 352.5C1451.21 354.887 1434.69 362.434 1422.74 377.763C1418.41 383.316 1414.59 390.01 1412.31 396.687C1410.19 402.905 1410.13 411.967 1406.01 417.039L1471.75 417.072L1534.58 417.1C1537.63 411.054 1533.84 401.221 1531.82 395.019C1526.75 379.495 1515.91 366.014 1501.23 358.67C1491.86 353.984 1480.62 351.721 1470.16 352.5Z"/>
	<defs>
		<linearGradient id="gradient_1" gradientUnits="userSpaceOnUse" x1="1341.3192" y1="383.97998" x2="965.77069" y2="418.01187">
			<stop offset="0" stop-color="#F0494E"/>
			<stop offset="1" stop-color="#F88F56"/>
		</linearGradient>
	</defs>
	<path fill="url(#gradient_1)" transform="scale(0.268908 0.268908)" d="M1263.3 235.773L1329.35 235.771C1329.78 236.387 1330.15 237.047 1330.31 237.786C1332.02 245.554 1330.71 256.454 1330.71 264.557L1330.7 326.706C1330.67 404.392 1331.91 482.316 1330.48 559.977C1330.43 562.624 1330.42 564.681 1329.01 567.008L1275 566.704C1275.5 565.862 1275.92 564.981 1276.17 564.03C1278.3 555.663 1276.45 518.704 1276.42 507.18L1276.22 438.353C1276.18 426.459 1276.69 414.316 1275.94 402.461C1275.82 400.559 1275.33 399.105 1274.32 397.5C1274.67 396.938 1274.99 396.376 1275.25 395.765C1277.46 390.521 1276.46 320.81 1274.36 315.78C1274.42 316.309 1274.44 316.791 1274.39 317.325C1274.16 319.82 1180.57 484.599 1175.31 488.958L1131.38 488.948C1131.43 488.435 1131.47 488.315 1131.35 487.738C1130.03 481.787 1043.23 335.982 1033.38 320.578C1032.25 318.821 1031.05 317.6 1029.35 316.398C1029.71 317.13 1030.03 317.873 1030.26 318.661C1032.56 326.682 1030.86 375.979 1030.85 388.692C1030.83 445.949 1032.29 503.66 1030.64 560.869C1030.57 563.26 1030.39 564.851 1029.2 566.954L975.437 566.744C975.834 566.169 976.149 565.575 976.369 564.908C978.621 558.073 977.114 485.608 977.125 471.671L977.221 321.248C977.233 295.257 977.781 269.134 977.175 243.156C977.116 240.651 976.875 238.786 975.803 236.495C988.475 233.653 1026.26 235.697 1041.67 235.772C1042.1 236.067 1042.49 236.379 1042.87 236.734C1047.55 241.121 1141.75 410.99 1151.23 428.607C1152.13 430.281 1152.69 431.411 1152.68 433.372C1152.96 433.146 1153.24 432.911 1153.51 432.667C1158.25 428.411 1254.43 255.148 1262.53 239.307C1263.11 238.182 1263.25 237.021 1263.3 235.773Z"/>
	<defs>
		<linearGradient id="gradient_2" gradientUnits="userSpaceOnUse" x1="1782.6716" y1="443.39941" x2="2054.4514" y2="418.61679">
			<stop offset="0" stop-color="#CF4070"/>
			<stop offset="1" stop-color="#B6468E"/>
		</linearGradient>
	</defs>
	<path fill="url(#gradient_2)" transform="scale(0.268908 0.268908)" d="M1896.91 295.5C1926.55 293.392 1957.3 303.837 1980.17 322.64C1984.11 325.881 1992.39 333.538 1992.9 338.595Q1993.29 337.646 1993.59 336.663C1995.44 330.367 1995.91 308.447 1992.79 302.993L2044.27 302.993C2044.73 303.731 2045.12 304.463 2045.41 305.289C2047.17 310.363 2046.77 529.626 2045.94 552.702C2045.86 555.02 2045.54 556.793 2044.51 558.895L1992.85 558.896C1993.21 558.318 1993.55 557.711 1993.79 557.07C1995.77 551.734 1994.91 528.913 1992.55 523.824C1992.51 524.263 1992.41 524.698 1992.28 525.121C1990.22 531.816 1979.58 540.261 1973.59 543.499C1973.41 543.917 1973.41 543.997 1973.08 544.399C1963.56 555.875 1932.26 564.475 1917.9 566.167Q1916.48 566.339 1915.06 566.476Q1913.63 566.613 1912.21 566.714Q1910.78 566.815 1909.35 566.881Q1907.92 566.947 1906.5 566.977Q1905.07 567.007 1903.64 567.002Q1902.21 566.997 1900.78 566.956Q1899.35 566.914 1897.92 566.838Q1896.49 566.761 1895.07 566.649Q1893.64 566.537 1892.22 566.389Q1890.8 566.242 1889.38 566.059Q1887.96 565.876 1886.55 565.658Q1885.13 565.439 1883.73 565.186Q1882.32 564.933 1880.92 564.644Q1879.52 564.356 1878.13 564.033Q1876.73 563.71 1875.35 563.352Q1873.96 562.995 1872.59 562.602Q1871.21 562.21 1869.85 561.784Q1868.48 561.358 1867.13 560.898Q1865.78 560.438 1864.43 559.944Q1863.09 559.451 1861.76 558.924Q1860.43 558.397 1859.12 557.837Q1857.8 557.278 1856.5 556.685Q1855.2 556.093 1853.91 555.468Q1852.63 554.844 1851.36 554.187Q1850.09 553.531 1848.83 552.843Q1847.58 552.155 1846.34 551.436Q1845.11 550.717 1843.89 549.968Q1842.67 549.218 1841.47 548.439Q1840.27 547.659 1839.1 546.85Q1837.92 546.041 1836.76 545.203Q1835.6 544.365 1834.46 543.498Q1833.33 542.631 1832.21 541.736C1803.26 518.668 1785.85 483.463 1781.88 446.952C1777.78 409.208 1788.32 369.977 1812.26 340.303C1833.96 313.387 1862.9 299.114 1896.91 295.5ZM1904.25 346.5C1880.53 351.443 1861.23 362.197 1847.75 382.917Q1847.16 383.836 1846.6 384.769Q1846.03 385.703 1845.49 386.649Q1844.95 387.596 1844.43 388.556Q1843.91 389.516 1843.42 390.488Q1842.92 391.46 1842.45 392.445Q1841.98 393.429 1841.53 394.424Q1841.09 395.419 1840.67 396.425Q1840.24 397.431 1839.85 398.447Q1839.45 399.463 1839.08 400.489Q1838.71 401.514 1838.36 402.548Q1838.01 403.582 1837.69 404.625Q1837.37 405.667 1837.07 406.717Q1836.78 407.767 1836.51 408.824Q1836.24 409.881 1835.99 410.945Q1835.75 412.008 1835.53 413.077Q1835.31 414.146 1835.12 415.219Q1834.93 416.293 1834.77 417.372Q1834.6 418.45 1834.46 419.532Q1834.32 420.614 1834.21 421.699Q1834.1 422.784 1834.01 423.872Q1833.93 424.959 1833.87 426.049Q1833.81 427.138 1833.78 428.228Q1833.74 429.319 1833.74 430.41Q1833.73 431.5 1833.76 432.591Q1833.78 433.682 1833.82 434.772Q1833.87 435.861 1833.95 436.95Q1834.02 438.038 1834.12 439.124Q1834.23 440.21 1834.35 441.294Q1834.48 442.377 1834.64 443.457Q1834.79 444.537 1834.97 445.613Q1835.15 446.688 1835.36 447.759Q1835.57 448.83 1835.8 449.896C1840.65 472.08 1854.07 492.237 1873.35 504.426Q1874.66 505.259 1876 506.038Q1877.35 506.817 1878.72 507.54Q1880.09 508.264 1881.5 508.931Q1882.9 509.598 1884.33 510.207Q1885.75 510.816 1887.21 511.366Q1888.66 511.916 1890.13 512.407Q1891.6 512.897 1893.09 513.327Q1894.59 513.757 1896.1 514.126Q1897.6 514.495 1899.12 514.802Q1900.65 515.109 1902.18 515.353Q1903.71 515.598 1905.26 515.779Q1906.8 515.961 1908.35 516.08Q1909.89 516.198 1911.44 516.254Q1913 516.309 1914.55 516.301Q1916.1 516.293 1917.65 516.222Q1919.2 516.151 1920.75 516.016C1944.01 514.823 1969.68 503.437 1985.43 486.051C1987.72 483.522 1992.88 478.094 1992.98 474.659C1994.82 470.2 1995.59 394.015 1993.57 389.042C1993.37 388.556 1993.13 388.093 1992.88 387.638C1992.54 382.521 1984.61 374.709 1980.8 371.366C1959.93 353.035 1933.32 344.403 1905.74 346.385Q1904.99 346.438 1904.25 346.5Z"/>
	<path fill="#E94653" transform="scale(0.268908 0.268908)" d="M452.36 199.739C471.637 194.751 506.83 207.239 523.503 217.085C547.99 231.545 566.384 252.435 584.473 273.979C617.616 237.198 637.913 203.278 693.712 200.262C724.58 198.594 753.224 211.016 775.866 231.514C827.477 278.235 849.472 356.191 852.765 423.562C854.63 461.737 851.33 510.774 824.329 540.329C808.777 557.353 785.559 566.502 762.81 567.41C734.236 568.55 709.183 560.019 688.226 540.473C657.847 512.14 635.583 473.283 615.118 437.475C603.824 417.714 592.496 391.812 575.283 376.732C543.753 431.409 490.266 547.874 426.829 564.447Q425.823 564.706 424.804 564.904L424.653 563.639C409.496 566.618 391.936 568.818 376.961 563.818C377.382 543.453 380.63 523.109 380.491 502.753C385.406 505.274 390.681 507.637 396.118 508.755C404.601 510.498 418.698 507.817 425.925 503.044L425.752 501.519C415.852 506.158 405.348 508.882 394.399 506.645C384.561 504.636 376.907 498.499 371.524 490.169C353.406 462.137 358.354 417.123 365.118 385.863C374.9 340.654 395.283 291.54 435.472 265.663L434.41 264.877C420.311 269.168 408.332 286.264 400.018 297.306C398.064 299.901 395.991 303.627 393.707 305.834C393.537 305.998 393.36 306.155 393.187 306.315L393.719 306.305C392.364 304.103 394.453 300.388 394.611 297.675C394.82 294.099 393.733 290.386 394.06 286.865C394.305 284.227 395.487 281.619 395.763 278.901C397.757 259.311 395.721 238.396 399.716 219.092C417.941 206.542 432.741 206.224 452.36 199.739ZM695.624 248.317C667.325 252.107 647.689 269.343 630.926 291.324C624.837 299.308 619.06 307.556 613.23 315.73L665.161 400.788C683.803 431.293 705.771 474.793 733.797 497.27C742.624 503.985 752.836 510.132 764.428 508.551C773.763 507.278 782.22 500.708 787.724 493.298C805.859 468.883 801.932 424.049 797.581 395.469C790.672 350.098 772.249 288.601 733.461 260.186C722.62 252.244 709.223 247.204 695.624 248.317ZM435.472 265.663C395.283 291.54 374.9 340.654 365.118 385.863C358.354 417.123 353.406 462.137 371.524 490.169C376.907 498.499 384.561 504.636 394.399 506.645C405.348 508.882 415.852 506.158 425.752 501.519C431.114 495.195 440.76 489.465 446.897 482.051C467.145 457.592 484.541 429.766 501.926 403.231C517.299 379.765 534.493 355.438 546.204 329.932C533.442 304.224 510.343 278.059 483.89 266.304C467.049 258.821 452.434 259.073 435.472 265.663Z"/>
</svg>
